<svg width="137" height="81" viewBox="0 0 137 81" fill="none" xmlns="http://www.w3.org/2000/svg">
<path d="M1.77049 26.6564C1.77049 24.7493 2.1079 22.8862 2.78272 21.0671C3.48688 19.2187 4.49911 17.5463 5.81942 16.05C7.13972 14.5243 8.75342 13.3213 10.6605 12.4411C12.5676 11.5316 14.7388 11.0768 17.174 11.0768C20.0493 11.0768 22.5286 11.7076 24.6117 12.9693C26.7242 14.2309 28.2939 15.8739 29.3208 17.8984L24.6557 21.1111C24.1276 19.9375 23.4381 19.0133 22.5872 18.3385C21.7364 17.6343 20.8268 17.1502 19.8586 16.8862C18.8904 16.5928 17.9368 16.4461 16.998 16.4461C15.4723 16.4461 14.1373 16.7541 12.9931 17.3703C11.8781 17.9864 10.9393 18.7933 10.1764 19.7908C9.41357 20.7884 8.84144 21.9033 8.46002 23.1356C8.10794 24.3679 7.9319 25.6001 7.9319 26.8324C7.9319 28.2114 8.15195 29.5464 8.59205 30.8373C9.03215 32.099 9.64829 33.2286 10.4405 34.2261C11.262 35.1943 12.2302 35.9718 13.3451 36.5586C14.4894 37.1161 15.7363 37.3948 17.086 37.3948C18.0542 37.3948 19.0371 37.2335 20.0347 36.9107C21.0322 36.588 21.9564 36.0745 22.8073 35.3704C23.6582 34.6662 24.3183 33.7567 24.7877 32.6418L29.7609 35.5024C29.1447 37.0574 28.1325 38.3777 26.7242 39.4633C25.3452 40.5489 23.7902 41.3704 22.0591 41.9279C20.3281 42.4853 18.6117 42.7641 16.9099 42.7641C14.6801 42.7641 12.641 42.3093 10.7926 41.3997C8.94413 40.4609 7.3451 39.2286 5.99546 37.7029C4.67515 36.1479 3.63358 34.4168 2.87074 32.5097C2.13724 30.5733 1.77049 28.6222 1.77049 26.6564ZM51.1831 42.7201C48.8946 42.7201 46.8114 42.2799 44.9337 41.3997C43.0853 40.5195 41.4862 39.3313 40.1366 37.8349C38.8163 36.3093 37.7894 34.6075 37.0559 32.7298C36.3224 30.8227 35.9556 28.8716 35.9556 26.8764C35.9556 24.7933 36.3371 22.8128 37.0999 20.9351C37.8921 19.028 38.963 17.3409 40.3126 15.8739C41.6916 14.3776 43.3053 13.204 45.1537 12.3531C47.0315 11.4729 49.0853 11.0328 51.3151 11.0328C53.5743 11.0328 55.6281 11.4876 57.4765 12.3971C59.3543 13.3067 60.9533 14.5243 62.2736 16.05C63.5939 17.5756 64.6208 19.2774 65.3543 21.1551C66.0878 23.0329 66.4546 24.9693 66.4546 26.9645C66.4546 29.0183 66.0732 30.9987 65.3103 32.9058C64.5475 34.7836 63.4766 36.4706 62.0976 37.967C60.748 39.434 59.1343 40.5929 57.2565 41.4438C55.4081 42.2946 53.3836 42.7201 51.1831 42.7201ZM42.117 26.8764C42.117 28.2261 42.3224 29.5317 42.7332 30.7933C43.1439 32.055 43.7307 33.1845 44.4936 34.1821C45.2858 35.1503 46.2393 35.9278 47.3542 36.5146C48.4985 37.0721 49.7895 37.3508 51.2271 37.3508C52.6941 37.3508 53.9997 37.0574 55.144 36.4706C56.2883 35.8545 57.2418 35.0476 58.0047 34.0501C58.7675 33.0232 59.3396 31.8936 59.7211 30.6613C60.1318 29.3997 60.3372 28.1381 60.3372 26.8764C60.3372 25.5268 60.1171 24.2358 59.677 23.0036C59.2663 21.7419 58.6648 20.627 57.8726 19.6588C57.1098 18.6612 56.1562 17.8837 55.012 17.3263C53.8971 16.7395 52.6354 16.4461 51.2271 16.4461C49.7308 16.4461 48.4105 16.7541 47.2662 17.3703C46.1513 17.9571 45.2124 18.7493 44.4496 19.7468C43.6867 20.7444 43.0999 21.8593 42.6892 23.0916C42.3077 24.3239 42.117 25.5855 42.117 26.8764ZM75.5145 42.5V11.2529H86.8691C90.2725 11.2529 93.1185 11.957 95.407 13.3654C97.6955 14.7443 99.4119 16.6221 100.556 18.9986C101.7 21.3458 102.273 23.9571 102.273 26.8324C102.273 30.0011 101.642 32.7591 100.38 35.1063C99.1185 37.4535 97.3288 39.2726 95.0109 40.5636C92.7224 41.8545 90.0084 42.5 86.8691 42.5H75.5145ZM96.1552 26.8324C96.1552 24.808 95.7884 23.0329 95.0549 21.5072C94.3214 19.9522 93.2652 18.7492 91.8862 17.8984C90.5072 17.0182 88.8348 16.5781 86.8691 16.5781H81.5879V37.1748H86.8691C88.8642 37.1748 90.5512 36.7347 91.9302 35.8545C93.3092 34.9449 94.3508 33.7127 95.0549 32.1576C95.7884 30.5733 96.1552 28.7982 96.1552 26.8324ZM133.116 37.1748V42.5H111.419V11.2529H132.72V16.5781H117.492V24.1038H130.651V29.0329H117.492V37.1748H133.116Z" fill="#1E1E62"/>
<g clip-path="url(#clip0_139_522)">
<path d="M5.39543 65.2766L10.3955 58.6095C10.5332 58.4264 10.6089 58.1815 10.6089 57.9204C10.6089 57.6592 10.5332 57.4145 10.3955 57.231L9.95738 56.6472C9.81992 56.4634 9.63617 56.3623 9.44036 56.3623C9.24454 56.3623 9.06101 56.4634 8.92344 56.6472L2.97004 64.5849C2.83193 64.7689 2.7563 65.0148 2.75684 65.2761C2.7563 65.5387 2.83182 65.7842 2.97004 65.9684L8.9179 73.8984C9.05547 74.0821 9.239 74.1833 9.43492 74.1833C9.63074 74.1833 9.81427 74.0821 9.95195 73.8984L10.39 73.3145C10.675 72.9345 10.675 72.3158 10.39 71.936L5.39543 65.2766Z" fill="#1E1E62"/>
</g>
<path d="M23.3072 65.1645C23.3072 64.0712 23.5091 63.0031 23.9128 61.9603C24.3164 60.9006 24.9051 59.9419 25.6789 59.0841C26.4526 58.2262 27.3945 57.545 28.5046 57.0404C29.6147 56.519 30.8762 56.2583 32.2891 56.2583C33.9711 56.2583 35.426 56.6199 36.6539 57.3432C37.8985 58.0665 38.8236 59.0084 39.4291 60.169L36.2502 62.3892C35.9811 61.75 35.6194 61.2538 35.1653 60.9006C34.728 60.5474 34.2402 60.3035 33.702 60.169C33.1805 60.0176 32.6759 59.9419 32.1882 59.9419C31.3976 59.9419 30.708 60.1017 30.1193 60.4213C29.5306 60.724 29.0428 61.1361 28.656 61.6575C28.2691 62.1789 27.9832 62.7592 27.7982 63.3984C27.6131 64.0375 27.5206 64.6767 27.5206 65.3158C27.5206 66.0223 27.63 66.7035 27.8486 67.3595C28.0673 68.0154 28.3784 68.5957 28.7821 69.1003C29.2026 69.6049 29.7072 70.0086 30.2959 70.3114C30.8846 70.5973 31.5322 70.7403 32.2386 70.7403C32.7432 70.7403 33.2562 70.6562 33.7776 70.488C34.2991 70.3198 34.7784 70.0591 35.2157 69.7059C35.6699 69.3358 36.0147 68.8564 36.2502 68.2677L39.631 70.2609C39.2778 71.1355 38.6975 71.884 37.8901 72.5064C37.0828 73.1287 36.1661 73.6081 35.1401 73.9445C34.1309 74.2641 33.1301 74.4238 32.1377 74.4238C30.8426 74.4238 29.6484 74.1631 28.5551 73.6417C27.4786 73.1035 26.5451 72.397 25.7545 71.5224C24.9808 70.6309 24.3753 69.6386 23.938 68.5453C23.5175 67.4352 23.3072 66.3082 23.3072 65.1645ZM44.2348 74.2725V56.3592H52.3084C53.1494 56.3592 53.9231 56.5358 54.6296 56.8891C55.3528 57.2255 55.9752 57.688 56.4966 58.2767C57.018 58.8486 57.4217 59.4962 57.7076 60.2194C58.0104 60.9427 58.1617 61.6743 58.1617 62.4144C58.1617 63.1545 58.044 63.8609 57.8085 64.5337C57.573 65.1897 57.2366 65.7868 56.7993 66.325C56.362 66.8465 55.8406 67.2754 55.2351 67.6118L59.1709 74.2725H54.6043L51.1731 68.4948H48.3725V74.2725H44.2348ZM48.3725 64.8869H52.157C52.4934 64.8869 52.7878 64.786 53.0401 64.5842C53.3092 64.3655 53.5279 64.0712 53.6961 63.7011C53.8643 63.3311 53.9484 62.9022 53.9484 62.4144C53.9484 61.9266 53.8474 61.5061 53.6456 61.1529C53.4606 60.7829 53.2251 60.4969 52.9392 60.2951C52.6532 60.0933 52.3505 59.9923 52.0309 59.9923H48.3725V64.8869ZM68.176 56.3592H72.6417L78.7978 74.2725H74.5592L73.1716 70.2609H67.5958L66.2333 74.2725H61.9947L68.176 56.3592ZM72.4904 67.4099L70.3963 60.5222L68.2517 67.4099H72.4904ZM83.0849 74.2725V56.3592H95.2457V59.9923H87.2226V63.8525H93.8329V67.2081H87.2226V74.2725H83.0849ZM113.622 59.9923H108.172V74.2725H104.034V59.9923H98.5593V56.3592H113.622V59.9923Z" fill="#1E1E62"/>
<g clip-path="url(#clip1_139_522)">
<path d="M131.157 65.2766L126.157 58.6095C126.019 58.4264 125.943 58.1815 125.943 57.9204C125.943 57.6592 126.019 57.4145 126.157 57.231L126.595 56.6472C126.732 56.4634 126.916 56.3623 127.112 56.3623C127.308 56.3623 127.491 56.4634 127.629 56.6472L133.582 64.5849C133.72 64.7689 133.796 65.0148 133.795 65.2761C133.796 65.5387 133.72 65.7842 133.582 65.9684L127.634 73.8984C127.497 74.0821 127.313 74.1833 127.117 74.1833C126.922 74.1833 126.738 74.0821 126.6 73.8984L126.162 73.3145C125.877 72.9345 125.877 72.3158 126.162 71.936L131.157 65.2766Z" fill="#1E1E62"/>
</g>
<defs>
<clipPath id="clip0_139_522">
<rect width="13.3657" height="17.821" fill="white" transform="translate(0 56.3623)"/>
</clipPath>
<clipPath id="clip1_139_522">
<rect width="13.3657" height="17.821" fill="white" transform="matrix(-1 0 0 1 136.552 56.3623)"/>
</clipPath>
</defs>
</svg>
